<?xml version="1.0" encoding="utf-8"?>
<svg xmlns="http://www.w3.org/2000/svg" viewBox="933.4 432.2 400 400" width="400" height="400"><g transform="matrix(0.875, 0, 0, 0.875, 141.6749725341797, 79.02498626708979)"><ellipse style="stroke: rgb(0, 0, 0); stroke-width: 1; opacity: 0; fill: rgb(216, 216, 216);" cx="1098.92" cy="601.196" rx="45.202" ry="22.252"/><rect width="400" height="400" style="fill: rgb(255, 255, 255); paint-order: stroke; stroke-width: 1;" rx="200" ry="200" x="933.4" y="432.2" id="object-0"/><path d="M 1169.02 789.796 L 1169.02 647.748 L 1192.69 647.748 L 1192.69 789.796 L 1169.02 789.796 Z M 1121.67 759.359 L 1121.67 678.188 L 1145.34 678.188 L 1145.34 759.359 L 1121.67 759.359 Z M 1216.37 759.359 L 1216.37 678.188 L 1240.04 678.188 L 1240.04 759.359 L 1216.37 759.359 Z M 1074.32 728.923 L 1074.32 708.626 L 1098 708.626 L 1098 728.923 L 1074.32 728.923 Z M 1263.71 728.923 L 1263.71 708.626 L 1287.38 708.626 L 1287.38 728.923 L 1263.71 728.923 Z M 1062.49 678.188 L 1062.49 657.895 L 1076.39 657.895 C 1084.68 657.895 1092.42 656.119 1099.62 652.567 C 1106.83 649.016 1112.6 644.196 1116.93 638.109 C 1123.64 628.47 1132.67 620.903 1144.02 615.406 C 1155.35 609.91 1167.63 607.162 1180.85 607.162 C 1194.06 607.162 1206.35 609.91 1217.69 615.406 C 1229.03 620.903 1238.06 628.47 1244.77 638.109 C 1249.11 644.196 1254.88 649.016 1262.08 652.567 C 1269.29 656.119 1277.02 657.895 1285.31 657.895 L 1299.22 657.895 L 1299.22 678.188 L 1285.6 678.188 C 1273.18 678.188 1261.49 675.567 1250.55 670.323 C 1239.59 665.082 1230.97 657.895 1224.65 648.762 C 1220.11 642.168 1213.95 636.967 1206.16 633.163 C 1198.35 629.357 1189.92 627.454 1180.85 627.454 C 1171.98 627.454 1163.64 629.357 1155.85 633.163 C 1148.06 636.967 1141.89 642.168 1137.36 648.762 C 1131.04 657.895 1122.41 665.082 1111.46 670.323 C 1100.51 675.567 1088.82 678.188 1076.39 678.188 L 1062.49 678.188 Z" style="stroke-width: 1.143;"/><g style="" transform="matrix(1, 0, 0, 1.196928, 0.957683, -142.363251)"><rect x="1027.16" y="530.724" width="21.737" height="134.444" style="fill: rgb(74, 158, 224); stroke-width: 1.525;" rx="5" ry="5"/><ellipse style="fill: rgb(74, 158, 224); stroke-width: 1.525;" cx="1006.43" cy="679.381" rx="50.934" ry="35.862"/><rect x="1140.06" y="507.232" width="21.737" height="134.444" style="fill: rgb(74, 158, 224); stroke-width: 1.525;" rx="5" ry="5"/><rect x="1485.48" y="808.935" width="142.358" height="23.755" style="fill: rgb(74, 158, 224); stroke-width: 1.524; transform-box: fill-box; transform-origin: 50% 50%;" rx="5" ry="5" transform="matrix(0.992232, -0.124398, 0.099275, 0.995382, -462.313488, -300.894416)"/><ellipse style="fill: rgb(74, 158, 224); stroke-width: 1.525;" cx="1115.84" cy="653.689" rx="51.287" ry="35.862"/></g></g></svg>